<svg viewBox="0 0 24 24"><path d="M9.3 15.235c0 1.045-.545 2.755-1.835 2.755S5.63 16.28 5.63 15.235s.55-2.755 1.84-2.755 1.83 1.71 1.83 2.755zM24 12.71a10.836 10.836 0 01-.875 4.75c-1.895 3.83-7.1 3.74-10.835 3.74-3.79 0-9.31.135-11.28-3.74A10.7 10.7 0 010 12.71a8.6 8.6 0 012.075-5.68 7.827 7.827 0 01-.385-2.44A4.979 4.979 0 012.42 2a7.812 7.812 0 015.44 1.8 19.152 19.152 0 014.435-.5 17.248 17.248 0 014.02.46A7.727 7.727 0 0121.7 2a4.932 4.932 0 01.73 2.59A7.717 7.717 0 0122.05 7 8.615 8.615 0 0124 12.71zm-3.215 2.525c0-2.2-1.335-4.13-3.675-4.13a20.557 20.557 0 00-2.8.3 14.691 14.691 0 01-2.255.16A14.781 14.781 0 019.8 11.4a20.224 20.224 0 00-2.8-.3c-2.34 0-3.675 1.935-3.675 4.13 0 4.39 4.02 5.065 7.52 5.065h2.41c3.515.005 7.53-.665 7.53-5.06zm-4.13-2.755c-1.29 0-1.835 1.71-1.835 2.755s.545 2.755 1.835 2.755 1.835-1.71 1.835-2.755-.545-2.755-1.835-2.755z"/></svg>
